<?xml version="1.0" encoding="UTF-8"?>
<svg id="Layer_1" data-name="Layer 1" xmlns="http://www.w3.org/2000/svg" viewBox="0 0 359.77 154.45">
  <defs>
    <style>
      .cls-1 {
        fill: #082b48;
      }
    </style>
  </defs>
  <g>
    <path class="cls-1" d="M172.81,44.84c0-7.6,6.16-13.75,13.75-13.75s13.75,6.16,13.75,13.75h13.75c0-15.19-12.31-27.51-27.51-27.51s-27.51,12.32-27.51,27.51h13.75Z"/>
    <path class="cls-1" d="M200.32,44.84c0,7.6-6.16,13.75-13.75,13.75s-13.75-6.16-13.75-13.75h27.51Z"/>
    <path class="cls-1" d="M55.52,44.84h0c-7.6,0-13.75-6.16-13.75-13.75V0h13.75v44.84Z"/>
    <path class="cls-1" d="M317.61,44.84c7.6,0,13.75-6.16,13.75-13.75v-13.59h-13.75v27.34Z"/>
    <path class="cls-1" d="M355.81,17.61v31.69c0,17.29-14.02,31.32-31.31,31.32v-12.92c9.7,0,17.56-7.86,17.56-17.56V17.61h13.76Z"/>
    <path class="cls-1" d="M31.31,17.61v31.69c0,17.29-14.02,31.32-31.31,31.32v-12.92c9.7,0,17.56-7.86,17.56-17.56V17.61h13.76Z"/>
    <path class="cls-1" d="M162.31,57.76c-2.06-3.85-3.25-8.24-3.25-12.92H55.52c0,7.13,5.78,12.92,12.92,12.92h93.87Z"/>
    <path class="cls-1" d="M304.69,57.76c7.13,0,12.92-5.78,12.92-12.92h-103.54c0,4.68-1.2,9.06-3.26,12.92h93.87Z"/>
    <path class="cls-1" d="M304.69,67.7h-19.47c0,7.13,5.78,12.92,12.92,12.92h19.47c0-7.13-5.78-12.92-12.92-12.92"/>
    <path class="cls-1" d="M78.02,110.93c-7.6,0-13.75,6.16-13.75,13.75v28.93h13.75v-42.68Z"/>
    <rect class="cls-1" x="64.27" y="95.86" width="13.75" height="12.19"/>
    <polygon class="cls-1" points="131.13 95.86 109.72 130.86 109.72 153.62 123.46 153.62 123.46 133.04 146.21 95.86 131.13 95.86"/>
    <path class="cls-1" d="M108.26,128.45c4.63-7.56,4.63-17.08,0-24.65l-4.86-7.94h-15.08l19.93,32.59Z"/>
    <path class="cls-1" d="M37.9,153.62h16.49l-16.23-21.3c7.16-2.66,12.27-9.54,12.27-17.63,0-10.4-8.43-18.82-18.83-18.82H0C0,102.6,5.46,108.05,12.19,108.05h17.84c3.66,0,6.64,2.97,6.64,6.63s-2.97,6.64-6.64,6.64H13.75v-10.39H0v42.68h13.75v-20.1h8.82l15.32,20.1Z"/>
    <path class="cls-1" d="M343.28,153.62h16.49l-16.23-21.3c7.16-2.66,12.27-9.54,12.27-17.63,0-10.4-8.43-18.83-18.83-18.83h-31.6c0,6.73,5.46,12.19,12.19,12.19h17.84c3.66,0,6.64,2.97,6.64,6.64s-2.97,6.64-6.64,6.64h-16.28v-10.39h-13.75v42.68h13.75v-20.1h8.83l15.32,20.1Z"/>
    <path class="cls-1" d="M271.58,95.86h-13l-25.05,57.75h13.93l17.62-40.63,7.68,17.69h-2.72c-6.73,0-12.42,4.36-14.51,12.19h22.52l4.66,10.75h13.93l-25.05-57.75Z"/>
    <path class="cls-1" d="M155.23,95.86v57.75h12.92v-34.82l13.91,30.46c1.45,3.16,4.6,5.19,8.08,5.19s6.64-2.03,8.08-5.19l13.91-30.46v34.82h12.92v-57.75h-15.18l-19.73,42.77-19.73-42.77h-15.18Z"/>
  </g>
  <g>
    <path class="cls-1" d="M172.81,44.84c0-7.6,6.16-13.75,13.75-13.75s13.75,6.16,13.75,13.75h13.75c0-15.19-12.31-27.51-27.51-27.51s-27.51,12.32-27.51,27.51h13.75Z"/>
    <path class="cls-1" d="M200.32,44.84c0,7.6-6.16,13.75-13.75,13.75s-13.75-6.16-13.75-13.75h27.51Z"/>
    <path class="cls-1" d="M55.52,44.84h0c-7.6,0-13.75-6.16-13.75-13.75V0h13.75v44.84Z"/>
    <path class="cls-1" d="M317.61,44.84c7.6,0,13.75-6.16,13.75-13.75v-13.59h-13.75v27.34Z"/>
    <path class="cls-1" d="M355.81,17.61v31.69c0,17.29-14.02,31.32-31.31,31.32v-12.92c9.7,0,17.56-7.86,17.56-17.56V17.61h13.76Z"/>
    <path class="cls-1" d="M31.31,17.61v31.69c0,17.29-14.02,31.32-31.31,31.32v-12.92c9.7,0,17.56-7.86,17.56-17.56V17.61h13.76Z"/>
    <path class="cls-1" d="M162.31,57.76c-2.06-3.85-3.25-8.24-3.25-12.92H55.52c0,7.13,5.78,12.92,12.92,12.92h93.87Z"/>
    <path class="cls-1" d="M304.69,57.76c7.13,0,12.92-5.78,12.92-12.92h-103.54c0,4.68-1.2,9.06-3.26,12.92h93.87Z"/>
    <path class="cls-1" d="M304.69,67.7h-19.47c0,7.13,5.78,12.92,12.92,12.92h19.47c0-7.13-5.78-12.92-12.92-12.92"/>
    <path class="cls-1" d="M78.02,110.93c-7.6,0-13.75,6.16-13.75,13.75v28.93h13.75v-42.68Z"/>
    <rect class="cls-1" x="64.27" y="95.86" width="13.75" height="12.19"/>
    <polygon class="cls-1" points="131.13 95.86 109.72 130.86 109.72 153.62 123.46 153.62 123.46 133.04 146.21 95.86 131.13 95.86"/>
    <path class="cls-1" d="M108.26,128.45c4.63-7.56,4.63-17.08,0-24.65l-4.86-7.94h-15.08l19.93,32.59Z"/>
    <path class="cls-1" d="M37.9,153.62h16.49l-16.23-21.3c7.16-2.66,12.27-9.54,12.27-17.63,0-10.4-8.43-18.82-18.83-18.82H0C0,102.6,5.46,108.05,12.19,108.05h17.84c3.66,0,6.64,2.97,6.64,6.63s-2.97,6.64-6.64,6.64H13.75v-10.39H0v42.68h13.75v-20.1h8.82l15.32,20.1Z"/>
    <path class="cls-1" d="M343.28,153.62h16.49l-16.23-21.3c7.16-2.66,12.27-9.54,12.27-17.63,0-10.4-8.43-18.83-18.83-18.83h-31.6c0,6.73,5.46,12.19,12.19,12.19h17.84c3.66,0,6.64,2.97,6.64,6.64s-2.97,6.64-6.64,6.64h-16.28v-10.39h-13.75v42.68h13.75v-20.1h8.83l15.32,20.1Z"/>
    <path class="cls-1" d="M271.58,95.86h-13l-25.05,57.75h13.93l17.62-40.63,7.68,17.69h-2.72c-6.73,0-12.42,4.36-14.51,12.19h22.52l4.66,10.75h13.93l-25.05-57.75Z"/>
    <path class="cls-1" d="M155.23,95.86v57.75h12.92v-34.82l13.91,30.46c1.45,3.16,4.6,5.19,8.08,5.19s6.64-2.03,8.08-5.19l13.91-30.46v34.82h12.92v-57.75h-15.18l-19.73,42.77-19.73-42.77h-15.18Z"/>
  </g>
</svg>